<?xml version="1.0" encoding="UTF-8" standalone="no"?>
<!DOCTYPE svg PUBLIC "-//W3C//DTD SVG 1.1//EN" "http://www.w3.org/Graphics/SVG/1.1/DTD/svg11.dtd">
<svg width="100%" height="100%" viewBox="0 0 662 207" version="1.1" xmlns="http://www.w3.org/2000/svg" xmlns:xlink="http://www.w3.org/1999/xlink" xml:space="preserve" xmlns:serif="http://www.serif.com/" style="fill-rule:evenodd;clip-rule:evenodd;">
    <g transform="matrix(1,0,0,1,-631.5,-49.276)">
        <g transform="matrix(1,0,0,1,146,14.178)">
            <g transform="matrix(1,0,0,1,488,156)">
                <g>
                    <path d="M45.498,-28.628C46.826,-30.656 47.596,-33.107 47.596,-35.77C47.596,-43.052 41.652,-48.996 34.373,-48.996L3.504,-48.996L3.504,-0.004L36.894,-0.004C45.503,-0.004 52.496,-6.997 52.496,-15.61C52.496,-21.074 49.698,-25.831 45.503,-28.628L45.498,-28.628ZM12.246,-40.254L34.442,-40.254C36.894,-40.254 38.924,-38.222 38.924,-35.77C38.924,-33.318 36.894,-31.286 34.443,-31.286L12.246,-31.286L12.246,-40.254ZM36.894,-8.746L12.246,-8.746L12.246,-22.544L36.894,-22.544C40.673,-22.544 43.754,-19.462 43.754,-15.68C43.754,-11.898 40.673,-8.816 36.892,-8.816L36.894,-8.746Z" style="fill:none;fill-rule:nonzero;stroke:rgb(185,136,66);stroke-width:2.5px;"/>
                    <path d="M81.172,-48.996C67.658,-48.996 56.676,-38.014 56.676,-24.5C56.676,-10.986 67.658,-0.004 81.172,-0.004C94.686,-0.004 105.668,-10.986 105.668,-24.5C105.668,-38.014 94.686,-48.996 81.172,-48.996ZM81.172,-8.746C72.49,-8.746 65.418,-15.818 65.418,-24.5C65.418,-33.182 72.49,-40.254 81.172,-40.254C89.854,-40.254 96.926,-33.182 96.926,-24.5C96.926,-15.818 89.854,-8.746 81.172,-8.746Z" style="fill:none;fill-rule:nonzero;stroke:rgb(185,136,66);stroke-width:2.5px;"/>
                    <path d="M151.848,-42.277L136.094,-30.169L120.34,-42.277L111.598,-48.996L111.598,-0.004L120.34,-0.004L120.34,-31.219L128.952,-24.64L136.094,-19.111L143.236,-24.64L151.848,-31.219L151.848,-0.004L160.59,-0.004L160.59,-48.996L151.848,-42.277Z" style="fill:none;fill-rule:nonzero;stroke:rgb(185,136,66);stroke-width:2.5px;"/>
                    <path d="M210.264,-28.628C211.592,-30.656 212.362,-33.107 212.362,-35.77C212.362,-43.052 206.418,-48.996 199.139,-48.996L168.27,-48.996L168.27,-0.004L201.66,-0.004C210.269,-0.004 217.262,-6.997 217.262,-15.61C217.262,-21.074 214.464,-25.831 210.269,-28.628L210.264,-28.628ZM177.012,-40.254L199.208,-40.254C201.66,-40.254 203.69,-38.222 203.69,-35.77C203.69,-33.318 201.66,-31.286 199.209,-31.286L177.012,-31.286L177.012,-40.254ZM201.66,-8.746L177.012,-8.746L177.012,-22.544L201.66,-22.544C205.439,-22.544 208.52,-19.462 208.52,-15.68C208.52,-11.898 205.439,-8.816 201.658,-8.816L201.66,-8.746Z" style="fill:none;fill-rule:nonzero;stroke:rgb(185,136,66);stroke-width:2.5px;"/>
                </g>
            </g>
            <g transform="matrix(1,0,0,1,866,156)">
                <g>
                    <path d="M45.498,-28.628C46.826,-30.656 47.596,-33.107 47.596,-35.77C47.596,-43.052 41.652,-48.996 34.373,-48.996L3.504,-48.996L3.504,-0.004L36.894,-0.004C45.503,-0.004 52.496,-6.997 52.496,-15.61C52.496,-21.074 49.698,-25.831 45.503,-28.628L45.498,-28.628ZM12.246,-40.254L34.442,-40.254C36.894,-40.254 38.924,-38.222 38.924,-35.77C38.924,-33.318 36.894,-31.286 34.443,-31.286L12.246,-31.286L12.246,-40.254ZM36.894,-8.746L12.246,-8.746L12.246,-22.544L36.894,-22.544C40.673,-22.544 43.754,-19.462 43.754,-15.68C43.754,-11.898 40.673,-8.816 36.892,-8.816L36.894,-8.746Z" style="fill:none;fill-rule:nonzero;stroke:rgb(185,136,66);stroke-width:2.5px;"/>
                    <path d="M73.118,-8.816C70.038,-9.236 67.588,-11.686 67.168,-14.766L67.168,-48.996L58.426,-48.996L58.426,-15.606C58.426,-13.156 58.986,-10.846 60.035,-8.746C61.503,-5.669 64.021,-3.151 67.098,-1.613C69.198,-0.564 71.508,-0.004 73.958,-0.004L98.808,-0.004L98.808,-8.746L73.118,-8.816Z" style="fill:none;fill-rule:nonzero;stroke:rgb(185,136,66);stroke-width:2.5px;"/>
                    <path d="M149.184,-8.753L128.674,-48.996L108.164,-8.753L103.684,-0.004L113.484,-0.004L117.964,-8.753L128.674,-29.749L139.384,-8.753L143.864,-0.004L153.664,-0.004L149.184,-8.753Z" style="fill:none;fill-rule:nonzero;stroke:rgb(185,136,66);stroke-width:2.5px;"/>
                    <path d="M201.022,-35.494L201.022,-35.774C201.022,-43.049 195.078,-48.996 187.799,-48.996L167.913,-48.996C160.634,-48.996 154.76,-43.049 154.76,-35.774L154.76,-35.494C154.76,-32.689 155.6,-30.096 157.068,-27.999C157.558,-27.229 158.117,-26.53 158.746,-25.901C161.124,-23.593 164.342,-22.194 167.913,-22.194L185.558,-22.194C189.269,-22.194 192.35,-19.18 192.35,-15.466C192.35,-11.758 189.269,-8.746 185.558,-8.746L170.224,-8.746C166.513,-8.749 163.502,-11.758 163.502,-15.466L154.76,-15.466C154.76,-6.93 161.683,-0.004 170.224,-0.004L185.558,-0.004C194.099,-0.004 201.022,-6.93 201.022,-15.466C201.022,-19.18 199.693,-22.614 197.525,-25.271C197.315,-25.481 197.176,-25.691 196.966,-25.901C194.169,-28.978 190.11,-30.936 185.558,-30.936L167.913,-30.936C165.462,-30.936 163.432,-32.97 163.432,-35.424L163.432,-35.704C163.432,-38.152 165.462,-40.184 167.913,-40.184L187.799,-40.184C190.25,-40.184 192.28,-38.152 192.28,-35.7L192.28,-35.424L201.022,-35.494Z" style="fill:none;fill-rule:nonzero;stroke:rgb(185,136,66);stroke-width:2.5px;"/>
                    <path d="M206.392,-48.996L206.392,-40.254L226.482,-40.254L226.482,-0.004L235.224,-0.004L235.224,-40.254L255.314,-40.254L255.314,-48.996L206.392,-48.996Z" style="fill:none;fill-rule:nonzero;stroke:rgb(185,136,66);stroke-width:2.5px;"/>
                </g>
            </g>
            <g transform="matrix(1,0,0,1,690,228)">
                <g>
                    <path d="M37.504,-36.237L24,-25.859L10.496,-36.237L3.004,-41.996L3.004,-0.004L10.496,-0.004L10.496,-26.759L17.878,-21.12L24,-16.381L30.122,-21.12L37.504,-26.759L37.504,-0.004L44.996,-0.004L44.996,-41.996L37.504,-36.237Z" style="fill:none;fill-rule:nonzero;stroke:rgb(185,136,66);stroke-width:2.5px;"/>
                    <path d="M62.912,-34.504L93.572,-34.504L93.572,-41.996L62.912,-41.996C56.675,-41.996 51.64,-36.901 51.64,-30.66L51.64,-11.339C51.64,-5.099 56.675,-0.004 62.912,-0.004L93.572,-0.004L93.572,-7.496L62.912,-7.496C60.812,-7.496 59.072,-9.237 59.072,-11.339L59.072,-19.264L86.072,-19.264L86.072,-26.756L59.072,-26.756L59.072,-30.66C59.072,-32.762 60.812,-34.504 62.912,-34.504Z" style="fill:none;fill-rule:nonzero;stroke:rgb(185,136,66);stroke-width:2.5px;"/>
                    <path d="M121.152,-41.996L100.156,-41.996L100.156,-0.004L121.152,-0.004C126.914,-0.004 132.135,-2.341 135.914,-6.178C136.334,-6.597 136.754,-7.017 137.113,-7.436C140.23,-11.096 142.088,-15.836 142.088,-20.996C142.088,-32.639 132.675,-41.996 121.092,-41.996L121.152,-41.996ZM121.092,-7.436L107.588,-7.436L107.588,-34.504L121.092,-34.504C128.534,-34.504 134.596,-28.429 134.596,-20.97C134.596,-13.511 128.534,-7.436 121.092,-7.436Z" style="fill:none;fill-rule:nonzero;stroke:rgb(185,136,66);stroke-width:2.5px;"/>
                    <rect x="148.732" y="-41.996" width="7.493" height="41.993" style="fill:none;fill-rule:nonzero;stroke:rgb(185,136,66);stroke-width:2.5px;"/>
                    <path d="M199.404,-7.502L181.824,-41.996L164.244,-7.502L160.404,-0.004L168.804,-0.004L172.644,-7.502L181.824,-25.499L191.004,-7.502L194.844,-0.004L203.244,-0.004L199.404,-7.502Z" style="fill:none;fill-rule:nonzero;stroke:rgb(185,136,66);stroke-width:2.5px;"/>
                </g>
            </g>
        </g>
        <g transform="matrix(1,0,0,1,867.428,55.589)">
            <g>
                <g transform="matrix(1,0,0,1,14.823,23.101)">
                    <path d="M54.58,154.654L49.67,130.126L43.66,98.65L54.58,102.41L70.91,106.383L61.34,133.409L54.58,154.654Z" style="fill:url(#_Linear1);fill-rule:nonzero;stroke:rgb(112,112,112);stroke-width:1px;stroke-miterlimit:10;"/>
                </g>
                <g transform="matrix(1,0,0,1,-6.635,16.925)">
                    <path d="M1.92,108.842L17.873,94.951L32.628,81.06L39.277,87.781L50.484,99.881L23.97,104.807L1.92,108.842Z" style="fill:url(#_Linear2);fill-rule:nonzero;stroke:rgb(112,112,112);stroke-width:1px;stroke-miterlimit:10;"/>
                </g>
                <g transform="matrix(1,0,0,1,29.307,5.823)">
                    <path d="M102.45,40.99L86.84,56.44L70.76,72.9L69.11,59.86L67.83,51L88.43,45.02L102.45,40.99Z" style="fill:url(#_Linear3);fill-rule:nonzero;stroke:rgb(112,112,112);stroke-width:1px;stroke-miterlimit:10;"/>
                </g>
                <g transform="matrix(1,0,0,1,11.478,11.785)">
                    <path d="M43.26,98.65L36.31,90.42L29.06,82.04L45.84,78.77L70.36,73.75L55.98,86.81L43.26,98.65Z" style="fill:url(#_Linear4);fill-rule:nonzero;stroke:rgb(112,112,112);stroke-width:1px;stroke-miterlimit:10;"/>
                </g>
                <g transform="matrix(1,0,0,1,11.204,8.66)">
                    <path d="M40.79,59.59L52.63,65.24L70.36,73.75L45.84,77.82L28.06,81.06L36.01,68.42L40.79,59.59Z" style="fill:url(#_Linear5);fill-rule:nonzero;stroke:rgb(112,112,112);stroke-width:1px;stroke-miterlimit:10;"/>
                </g>
                <g transform="matrix(1,0,0,1,14.868,12.524)">
                    <path d="M70.6,104.31L57.78,101.66L44.26,98.65L55.98,86.81L70.36,73.75L70.36,89.03L70.6,104.31Z" style="fill:url(#_Linear6);fill-rule:nonzero;stroke:rgb(112,112,112);stroke-width:1px;stroke-miterlimit:10;"/>
                </g>
                <g transform="matrix(1,0,0,1,14.327,7.087)">
                    <path d="M66.77,51.28L68.51,61.49L70.36,72.98L57.78,66.73L41.59,59.69L54.18,55.04L66.77,51.28Z" style="fill:url(#_Linear7);fill-rule:nonzero;stroke:rgb(112,112,112);stroke-width:1px;stroke-miterlimit:10;"/>
                </g>
                <g transform="matrix(1,0,0,1,29.307,13.677)">
                    <path d="M108.61,112.09L89.88,108.38L71.16,104.39L71.16,91.41L71.48,73.75L93.76,97.06L108.61,112.09Z" style="fill:url(#_Linear8);fill-rule:nonzero;stroke:rgb(112,112,112);stroke-width:1px;stroke-miterlimit:10;"/>
                </g>
                <g transform="matrix(1,0,0,1,13.638,-6.31)">
                    <path d="M54.18,2.31L60.23,28.4L66.77,51.28L52.98,55.04L41.59,58.69L48.92,27.24L54.18,2.31Z" style="fill:url(#_Linear9);fill-rule:nonzero;stroke:rgb(112,112,112);stroke-width:1px;stroke-miterlimit:10;"/>
                </g>
                <g transform="matrix(1,0,0,1,-1.41,4.502)">
                    <path d="M27.981,77.5L12.826,49.733L1.41,28.4L21.042,42.311L40.674,57.481" style="fill:url(#_Linear10);fill-rule:nonzero;stroke:rgb(112,112,112);stroke-width:1px;stroke-miterlimit:10;"/>
                </g>
            </g>
        </g>
    </g>
    <defs>
        <linearGradient id="_Linear1" x1="0" y1="0" x2="1" y2="0" gradientUnits="userSpaceOnUse" gradientTransform="matrix(3.45326e-15,56.396,-56.396,3.45326e-15,57.285,99.4901)"><stop offset="0" style="stop-color:rgb(255,172,42);stop-opacity:1"/><stop offset="1" style="stop-color:rgb(239,255,0);stop-opacity:1"/></linearGradient>
        <linearGradient id="_Linear2" x1="0" y1="0" x2="1" y2="0" gradientUnits="userSpaceOnUse" gradientTransform="matrix(-48.564,5.94737e-15,-5.94737e-15,-48.564,50.484,94.951)"><stop offset="0" style="stop-color:rgb(255,172,42);stop-opacity:1"/><stop offset="1" style="stop-color:rgb(239,255,0);stop-opacity:1"/></linearGradient>
        <linearGradient id="_Linear3" x1="0" y1="0" x2="1" y2="0" gradientUnits="userSpaceOnUse" gradientTransform="matrix(34.62,0,0,34.62,67.83,56.945)"><stop offset="0" style="stop-color:rgb(255,172,42);stop-opacity:1"/><stop offset="1" style="stop-color:rgb(239,255,0);stop-opacity:1"/></linearGradient>
        <linearGradient id="_Linear4" x1="0" y1="0" x2="1" y2="0" gradientUnits="userSpaceOnUse" gradientTransform="matrix(1.52469e-15,24.9,-24.9,1.52469e-15,49.71,73.75)"><stop offset="0" style="stop-color:rgb(255,172,42);stop-opacity:1"/><stop offset="1" style="stop-color:rgb(239,255,0);stop-opacity:1"/></linearGradient>
        <linearGradient id="_Linear5" x1="0" y1="0" x2="1" y2="0" gradientUnits="userSpaceOnUse" gradientTransform="matrix(1.31466e-15,-21.47,21.47,1.31466e-15,49.21,81.06)"><stop offset="0" style="stop-color:rgb(255,172,42);stop-opacity:1"/><stop offset="1" style="stop-color:rgb(239,255,0);stop-opacity:1"/></linearGradient>
        <linearGradient id="_Linear6" x1="0" y1="0" x2="1" y2="0" gradientUnits="userSpaceOnUse" gradientTransform="matrix(13.3017,23.0117,-23.0117,13.3017,55.1911,82.5207)"><stop offset="0" style="stop-color:rgb(255,172,42);stop-opacity:1"/><stop offset="1" style="stop-color:rgb(239,255,0);stop-opacity:1"/></linearGradient>
        <linearGradient id="_Linear7" x1="0" y1="0" x2="1" y2="0" gradientUnits="userSpaceOnUse" gradientTransform="matrix(9.95442,-17.2081,17.2081,9.95442,55.2557,67.5767)"><stop offset="0" style="stop-color:rgb(255,172,42);stop-opacity:1"/><stop offset="1" style="stop-color:rgb(239,255,0);stop-opacity:1"/></linearGradient>
        <linearGradient id="_Linear8" x1="0" y1="0" x2="1" y2="0" gradientUnits="userSpaceOnUse" gradientTransform="matrix(37.45,0,0,37.45,71.16,92.92)"><stop offset="0" style="stop-color:rgb(255,172,42);stop-opacity:1"/><stop offset="1" style="stop-color:rgb(239,255,0);stop-opacity:1"/></linearGradient>
        <linearGradient id="_Linear9" x1="0" y1="0" x2="1" y2="0" gradientUnits="userSpaceOnUse" gradientTransform="matrix(3.45228e-15,-56.38,56.38,3.45228e-15,54.18,58.69)"><stop offset="0" style="stop-color:rgb(255,172,42);stop-opacity:1"/><stop offset="1" style="stop-color:rgb(239,255,0);stop-opacity:1"/></linearGradient>
        <linearGradient id="_Linear10" x1="0" y1="0" x2="1" y2="0" gradientUnits="userSpaceOnUse" gradientTransform="matrix(-39.264,4.80845e-15,-4.80845e-15,-39.264,40.674,52.95)"><stop offset="0" style="stop-color:rgb(255,172,42);stop-opacity:1"/><stop offset="1" style="stop-color:rgb(239,255,0);stop-opacity:1"/></linearGradient>
    </defs>
</svg>
