<?xml version="1.0" encoding="UTF-8"?> <svg xmlns="http://www.w3.org/2000/svg" xmlns:xlink="http://www.w3.org/1999/xlink" width="662" height="206.402" viewBox="0 0 662 206.402"><defs><linearGradient id="a" x1="0.5" y1="0.015" x2="0.5" y2="1.022" gradientUnits="objectBoundingBox"><stop offset="0" stop-color="#ffac2a"></stop><stop offset="1" stop-color="#efff00"></stop></linearGradient><linearGradient id="b" x1="1" y1="0.5" x2="0" y2="0.5" xlink:href="#a"></linearGradient><linearGradient id="c" x1="0" y1="0.5" x2="1" y2="0.5" xlink:href="#a"></linearGradient><linearGradient id="d" x1="0.5" y1="0" x2="0.5" y2="1" xlink:href="#a"></linearGradient><linearGradient id="e" x1="0.5" y1="1" x2="0.5" y2="0" xlink:href="#a"></linearGradient><linearGradient id="f" x1="0.415" y1="0.287" x2="0.92" y2="1.04" xlink:href="#a"></linearGradient><linearGradient id="g" x1="0.475" y1="0.751" x2="0.821" y2="-0.042" xlink:href="#a"></linearGradient><linearGradient id="h" x1="0" y1="0.5" x2="1" y2="0.5" xlink:href="#a"></linearGradient></defs><g transform="translate(-631.5 -49.276)"><g transform="translate(146 14.178)"><text transform="translate(488 156)" fill="none" stroke="#b98842" stroke-width="2.5" font-size="70" font-family="AzonixRegular, Azonix" letter-spacing="0.08em"><tspan x="0" y="0">BOMB</tspan></text><text transform="translate(866 156)" fill="none" stroke="#b98842" stroke-width="2.5" font-size="70" font-family="AzonixRegular, Azonix" letter-spacing="0.08em"><tspan x="0" y="0">Blast</tspan></text><text transform="translate(690 228)" fill="none" stroke="#b98842" stroke-width="2.5" font-size="60" font-family="AzonixRegular, Azonix" letter-spacing="0.08em"><tspan x="0" y="0">Media</tspan></text></g><g transform="translate(866.018 53.279)"><g transform="translate(1.41 2.31)"><path d="M54.58,154.654l-4.91-24.528L43.66,98.65l10.92,3.76,16.33,3.973-9.57,27.026Z" transform="translate(14.823 23.101)" stroke="#707070" stroke-miterlimit="10" stroke-width="1" fill="url(#a)"></path><path d="M1.92,108.842,17.873,94.951,32.628,81.06l6.649,6.721,11.207,12.1L23.97,104.807Z" transform="translate(-6.635 16.925)" stroke="#707070" stroke-miterlimit="10" stroke-width="1" fill="url(#b)"></path><path d="M102.45,40.99,86.84,56.44,70.76,72.9,69.11,59.86,67.83,51l20.6-5.98Z" transform="translate(29.307 5.823)" stroke="#707070" stroke-miterlimit="10" stroke-width="1" fill="url(#c)"></path><path d="M43.26,98.65l-6.95-8.23-7.25-8.38,16.78-3.27,24.52-5.02L55.98,86.81Z" transform="translate(11.478 11.785)" stroke="#707070" stroke-miterlimit="10" stroke-width="1" fill="url(#d)"></path><path d="M40.79,59.59l11.84,5.65,17.73,8.51L45.84,77.82,28.06,81.06l7.95-12.64Z" transform="translate(11.204 8.66)" stroke="#707070" stroke-miterlimit="10" stroke-width="1" fill="url(#e)"></path><path d="M70.6,104.31l-12.82-2.65L44.26,98.65,55.98,86.81,70.36,73.75V89.03Z" transform="translate(14.868 12.524)" stroke="#707070" stroke-miterlimit="10" stroke-width="1" fill="url(#f)"></path><path d="M66.77,51.28l1.74,10.21,1.85,11.49L57.78,66.73,41.59,59.69l12.59-4.65Z" transform="translate(14.327 7.087)" stroke="#707070" stroke-miterlimit="10" stroke-width="1" fill="url(#g)"></path><path d="M108.61,112.09l-18.73-3.71-18.72-3.99V91.41l.32-17.66L93.76,97.06Z" transform="translate(29.307 13.677)" stroke="#707070" stroke-miterlimit="10" stroke-width="1" fill="url(#h)"></path><path d="M54.18,2.31,60.23,28.4l6.54,22.88L52.98,55.04,41.59,58.69l7.33-31.45Z" transform="translate(13.638 -6.31)" stroke="#707070" stroke-miterlimit="10" stroke-width="1" fill="url(#e)"></path><path d="M27.981,77.5,12.826,49.733,1.41,28.4,21.042,42.311l19.632,15.17" transform="translate(-1.41 4.502)" stroke="#707070" stroke-miterlimit="10" stroke-width="1" fill="url(#b)"></path></g></g></g></svg> 